<svg xmlns="http://www.w3.org/2000/svg" xmlns:xlink="http://www.w3.org/1999/xlink" viewBox="0 0 113 100" width="113" height="100">
    <defs>
        <radialGradient id="a" cx="225" cy="600" r="120" gradientTransform="translate(-50 -130)" gradientUnits="userSpaceOnUse">
            <stop offset="0" stop-color="#009ee0"/>
            <stop offset="1" stop-color="#005888"/>
        </radialGradient>
        <radialGradient id="b" cx="-30" cy="90" r="130" gradientTransform="matrix(1 0 0 1.5 7 -48)" xlink:href="#a"/>
    </defs>
    <path d="M47.067 157.158v-34h9.309a58.171 58.171 0 0 1 8.041.372 12.273 12.273 0 0 1 3.936 1.275 7.244 7.244 0 0 1 2.864 2.8 8.12 8.12 0 0 1 .986 4.048 6.824 6.824 0 0 1-1.473 4.607 9.284 9.284 0 0 1-4.693 2.586 8.117 8.117 0 0 1 5.659 2.546 8.7 8.7 0 0 1 2.041 6.053 9.683 9.683 0 0 1-1.149 4.789 7.95 7.95 0 0 1-3.284 3.207 13.44 13.44 0 0 1-4.292 1.323 61.336 61.336 0 0 1-8.356.4zm8.594-20.431h1.851a10.153 10.153 0 0 0 4.7-.752 2.781 2.781 0 0 0 1.273-2.606 2.97 2.97 0 0 0-1.193-2.7q-1.188-.777-4.639-.778h-1.992v6.835zm0 13.5H58.9a9.568 9.568 0 0 0 4.673-.828 2.958 2.958 0 0 0 1.375-2.76 3.35 3.35 0 0 0-1.258-2.992q-1.254-.848-4.65-.85h-3.38v7.43z" transform="translate(-47 -95)" fill="url(#a)"/>
    <path d="M4.187 100L9.4 79H4.449a4.246 4.246 0 0 1-2.786-1.022 4.994 4.994 0 0 1-1.6-2.732 3.633 3.633 0 0 1-.058-.725L0 4.478A4.466 4.466 0 0 1 4.444 0h75.112A4.466 4.466 0 0 1 84 4.478V74.52a4.464 4.464 0 0 1-1.3 3.165A4.394 4.394 0 0 1 79.563 79h-54.54L4.189 100zM22.32 27.269a18.11 18.11 0 0 0-6.92 1.357 17.644 17.644 0 0 0-5.81 3.866 17.3 17.3 0 0 0-3.95 5.744 18.116 18.116 0 0 0 0 13.7 17.273 17.273 0 0 0 3.95 5.755 17.674 17.674 0 0 0 5.81 3.868 18.226 18.226 0 0 0 13.8 0 18.446 18.446 0 0 0 5.9-3.865 17.537 17.537 0 0 0 3.891-5.732 17.8 17.8 0 0 0-9.748-23.335 18.243 18.243 0 0 0-6.923-1.358zm23.17.743V62H55a60.511 60.511 0 0 0 8.285-.4 13.332 13.332 0 0 0 4.261-1.323 7.943 7.943 0 0 0 3.254-3.203 9.808 9.808 0 0 0 1.14-4.787 8.78 8.78 0 0 0-2.026-6.051 8.063 8.063 0 0 0-5.614-2.545 9.21 9.21 0 0 0 4.656-2.585 6.88 6.88 0 0 0 1.457-4.606 8.165 8.165 0 0 0-.976-4.046 7.217 7.217 0 0 0-2.842-2.8 12.1 12.1 0 0 0-3.9-1.275 57.563 57.563 0 0 0-7.971-.371zm11.735 27.056H54.01v-7.427h3.352c2.231 0 3.783.286 4.612.85a3.371 3.371 0 0 1 1.248 2.991 2.981 2.981 0 0 1-1.362 2.758 9.5 9.5 0 0 1-4.635.828zm-34.9 0a8.109 8.109 0 0 1-6.355-2.807 10.531 10.531 0 0 1-2.462-7.17A10.457 10.457 0 0 1 16 37.958a8.083 8.083 0 0 1 6.319-2.842A8.091 8.091 0 0 1 28.6 37.97a10.382 10.382 0 0 1 2.532 7.122 10.465 10.465 0 0 1-2.494 7.146 8.1 8.1 0 0 1-6.318 2.83zm33.522-13.493H54.01v-6.831h1.974c2.269 0 3.818.261 4.605.777a3 3 0 0 1 1.18 2.7 2.8 2.8 0 0 1-1.259 2.605 10.077 10.077 0 0 1-4.663.749z" transform="translate(29 0)" fill="url(#b)"/>
</svg>
