<?xml version="1.0" encoding="iso-8859-1"?>
<!-- Generator: Adobe Illustrator 20.1.0, SVG Export Plug-In . SVG Version: 6.00 Build 0)  -->
<svg version="1.1" id="Phone-14" xmlns="http://www.w3.org/2000/svg" xmlns:xlink="http://www.w3.org/1999/xlink" x="0px" y="0px"
	 viewBox="0 0 28.314 28.323" style="enable-background:new 0 0 28.314 28.323;" xml:space="preserve">
<path d="M27.728,20.384l-4.242-4.242c-0.377-0.378-0.879-0.586-1.413-0.586c0,0-0.001,0-0.002,0c-0.534,0-1.036,0.209-1.413,0.586
	l-2.828,2.828l-8.485-8.485l2.828-2.828c0.78-0.78,0.78-2.05-0.001-2.83L7.929,0.585C7.552,0.208,7.05,0,6.516,0H6.515
	C5.98,0,5.478,0.209,5.101,0.587L0.858,4.83C0.729,4.958-0.389,6.168,0.142,8.827c0.626,3.129,3.246,7.019,7.787,11.56
	c6.499,6.499,10.598,7.937,12.953,7.937c1.63,0,2.426-0.689,2.604-0.867l4.242-4.242c0.378-0.378,0.587-0.881,0.586-1.416
	C28.314,21.265,28.106,20.762,27.728,20.384z M22.072,26.042c-0.028,0.028-3.409,2.249-12.729-7.07
	C-0.178,9.452,2.276,6.243,2.272,6.244L6.515,2l4.243,4.244L7.223,9.779c-0.391,0.391-0.391,1.023,0,1.414l9.899,9.899
	c0.391,0.391,1.023,0.391,1.414,0l3.535-3.536l4.243,4.244L22.072,26.042z"/>
</svg>
